<svg version="1.1"
      xmlns="http://www.w3.org/2000/svg"
      xmlns:xlink="http://www.w3.org/1999/xlink"  id="snapshot-90407" width="250" height="250" viewBox="0 0 250 250"><desc>This image was made on Patterninja.com</desc><defs>
<!-- image 97946 -->
<g id="transformed-97946" data-image="97946" transform="translate(-58.86235252742708, -30.862352527427163) rotate(30, 148.86235252742708, 148.86235252742716)"><g><svg version="1.1" width="297.72470505485416px" height="297.7247050548543px" viewBox="0 0 297.72470505485416 297.7247050548543"><g id="original-97946"><svg xmlns="http://www.w3.org/2000/svg" viewBox="0 0 400 400" xmlns:xlink="http://www.w3.org/1999/xlink" version="1.1" preserveAspectRatio="xMidYMid meet">
  <path d="M281.9 144h-52.8c1.5-.7 3-1.4 4.6-2.1 7.1-3.4 12.7-6.5 17.1-9.4.1-.1.3-.2.4-.3 15.5-10.2 16.1-17.3 16.4-20 .6-6.6-3.4-12.3-12-16.9-3.8-2-7.7-3.1-11.6-3.1-12.2 0-23.9 9.6-34.8 28.5-1.6 2.8-3.1 5.6-4.4 8.3-1-12.6-5.2-32.7-21.6-42.7-20.2-12.2-39.8 3.8-47.7 14.3-.9.8-1.8 1.7-2.7 2.7-5.2 5.9-4.8 11.4-3.6 15 3.1 9.1 15.6 17.2 38.4 24.9.5.2 1 .3 1.5.5h-52.8c-9.4 0-17 7.6-17 17V203c0 9.4 7.6 17 17 17h16l-8.9 9h-.3c-2.8 0-5 2.2-5 5v72.1c0 9.4 7.6 17 17 17h129.6c9.4 0 17-7.6 17-17V233c0-.3 0-.6-.1-.9.3-1.6-.2-3.3-1.5-4.6-2-1.9-5.2-1.8-7.1.2L220 284v-12.3l47.9-51.6h14c9.4 0 17-7.6 17-17v-42c0-9.5-7.6-17.1-17-17.1zm0 10c2.5 0 4.6 1.3 5.9 3.2l-.3.3-48.9 52.5h-11.2l51.8-56h2.7zm-52.6 66l-9.3 10v-10h9.3zm36.3-66l-43.1 46.6v-8.8l35.1-37.8h8zm-32.6 0h10.9l-21.4 23.1v-11.8L233 154zm10.9-51.7c2.3 0 4.6.6 6.9 1.9 3.2 1.7 7 4.4 6.7 7.2-.2 2.3-2.1 4.9-5.2 7.6-1.1-4-3.1-7.3-6-9.9-2.9-2.6-6.2-4.1-9.5-4.9 2.8-1.4 5.2-1.9 7.1-1.9zM178 95c12.3 7.4 15.8 23.5 16.7 34.1-1.9-2.8-4.1-5.9-6.5-8.9-11.1-14.3-21.6-22.6-31.4-25 7.5-4.2 14.4-4.2 21.2-.2zm-68.7 66c0-3.9 3.1-7 7-7h5.5l-12.5 13.9V161zm0 21.9l25.9-28.9h12l-37.9 40.8v-11.9zm10.3 27.1h-3.2c-2.1 0-4-.9-5.3-2.4l49.8-53.6h10.7l-52 56zm8.5 28.6l18.2-18.6h11.8l-30 32.3v-13.7zm50.2 63.3L168 313.1h-11.6l21.9-23.5v12.3zm0-27.1L142.8 313h-7.7c-.9 0-1.8-.2-2.6-.5l45.8-49.5v11.8zm0-26.5l-50.2 54.3v-9.2l50.2-54.1v9zm0-23.7l-50.2 54.1V267l43.7-47h6.6v4.6zm2.5-29L167.4 210h-11l5.5-5.9 1.6-1.6c.2-.2.4-.4.5-.7l16.8-18v11.8zm0-26.5l-26.1 28.1-12.6 12.8h-8.9l47.6-51.2v10.3zM170.7 134c-26.2-8.9-31.1-16-32-18.6-.2-.7-.8-2.4 1.7-5.3 3.3-3.8 6.8-5.6 10.7-5.6 7.9 0 18.3 7.8 29.2 21.8 3.6 4.7 6.8 9.4 9.3 13.3-5.4-1.4-12.1-3.3-18.9-5.6zM210 313.1h-21.7V220H210v93.1zm2.5-103.1h-21.7v-56h9.1c.6.2 1.2.3 1.8.3.5 0 1-.1 1.6-.2 0 0 .1 0 .3-.1h9.1v56zm59.2 96.1c0 3.9-3.1 7-7 7h-12.3l19.3-20.7v13.7zm0-28.4l-.3.3-32.6 35.1h-9.3l42.3-45.3v9.9zm0-34v9.4l-.3.3-51.4 55.1v-10l51.7-54.8zm-59.6-103.4c-.4-.2-.9-.3-1.3-.4 1.9-4.2 4.3-9.3 7.1-14.2 3-5.2 5.9-9.3 8.6-12.5 3.5-.2 9.6.2 13.2 3.4 2.2 2 3.4 4.9 3.6 8.9-8.8 5.3-20.4 10.6-31.2 14.8zm7.9 116.6v-12.3l23-24.6h11.3L220 256.9zm68.9-53.9c0 3.9-3.1 7-7 7h-4.7l11.7-12.6v5.6zm0-20.3L263.6 210h-11.3l36.7-39.4v12.1z" fill="rgba(221, 221, 221, 1)" stroke="none"/>
</svg>
</g></svg></g></g>
<!-- /image 97946 -->

<!-- image 92506 -->
<g id="transformed-92506" data-image="92506" transform="translate(-80.05623023850174, -80.05623023850174) rotate(357, 80.05623023850174, 80.05623023850174)"><g><svg version="1.1" width="160.11246047700348px" height="160.11246047700348px" viewBox="0 0 160.11246047700348 160.11246047700348"><g id="original-92506"><svg xmlns="http://www.w3.org/2000/svg" viewBox="0 0 400 400" xmlns:xlink="http://www.w3.org/1999/xlink" version="1.1" preserveAspectRatio="xMidYMid meet">
  <path d="M306.8 233.2c-.7-2.7-3.4-4.3-6.1-3.6L271 237l-12.8-7.7.5-23.4 13.8-.3c2.8-.1 4.9-2.4 4.9-5.1-.1-2.8-2.4-4.9-5.1-4.9l-13.4.3.5-22.8 9.6-5.1 29.5 9.7c.5.2 1 .2 1.6.2 2.1 0 4.1-1.3 4.8-3.4.9-2.6-.6-5.4-3.2-6.3l-20.5-6.7 20.7-11.1c2.4-1.3 3.3-4.3 2-6.8-1.3-2.4-4.3-3.3-6.8-2L277.5 152l6.5-19.4c.9-2.6-.5-5.5-3.2-6.3-2.6-.9-5.5.5-6.3 3.2l-9.8 29.4-9.8 5.2-18.9-11.5 8.2-13.5c1.4-2.4.7-5.4-1.7-6.9-2.4-1.4-5.4-.7-6.9 1.7l-8.2 13.5-20.9-12.6.3-14.3 22.4-22.4c2-2 2-5.1 0-7.1s-5.1-2-7.1 0l-15 15 .5-21.8c.1-2.8-2.1-5-4.9-5.1-2.7-.1-5 2.1-5.1 4.9l-.5 21.6-14.6-14.8c-1.9-2-5.1-2-7.1 0-2 1.9-2 5.1 0 7.1l21.4 21.7-.3 14.8-22.3 12.3-7.4-12.4c-1.4-2.4-4.5-3.2-6.8-1.8-2.4 1.4-3.2 4.5-1.8 6.8l7.2 12.2-19.4 10.7-12.8-7.6-7.7-29.9c-.7-2.7-3.4-4.3-6.1-3.6-2.7.7-4.3 3.4-3.6 6.1l5.2 20.1-19-11.4c-2.4-1.4-5.4-.6-6.9 1.7-1.4 2.4-.6 5.4 1.7 6.9l19.1 11.5-20.5 5.2c-2.7.7-4.3 3.4-3.6 6.1.6 2.3 2.6 3.8 4.8 3.8.4 0 .8 0 1.2-.2l30.2-7.6 13.5 8.1-.5 22.4-11.9.3c-2.8.1-4.9 2.4-4.9 5.1.1 2.7 2.3 4.9 5 4.9h.1l11.4-.3-.5 21.8-12.6 6.7-29.6-8.1c-2.7-.7-5.4.9-6.1 3.5-.7 2.7.9 5.4 3.5 6.1l19.7 5.3-20.7 11.1c-2.4 1.3-3.3 4.3-2 6.8.9 1.7 2.6 2.6 4.4 2.6.8 0 1.6-.2 2.4-.6l21.8-11.7-5.7 20.8c-.7 2.7.8 5.4 3.5 6.1.4.1.9.2 1.3.2 2.2 0 4.2-1.5 4.8-3.7l8.3-30 11.2-6 19.1 11.6-7.1 10.2c-1.6 2.3-1 5.4 1.3 7 .9.6 1.9.9 2.8.9 1.6 0 3.1-.7 4.1-2.1l7.4-10.7 21.7 13.1-.4 16.3-22.4 22.4c-2 2-2 5.1 0 7.1 1 1 2.3 1.5 3.5 1.5 1.3 0 2.6-.5 3.5-1.5l15-15-.4 18.6c-.1 2.8 2.1 5 4.9 5.1h.1c2.7 0 4.9-2.2 5-4.9l.5-18.3 14.6 14.8c1 1 2.3 1.5 3.6 1.5 1.3 0 2.5-.5 3.5-1.4 2-1.9 2-5.1 0-7.1l-21.4-21.6.4-17.3 19.6-10.8 5.4 9.4c.9 1.6 2.6 2.5 4.3 2.5.8 0 1.7-.2 2.5-.7 2.4-1.4 3.2-4.4 1.9-6.8l-5.3-9.3 20.8-11.4 12.4 7.4 7.8 30.4c.6 2.3 2.6 3.8 4.8 3.8.4 0 .8-.1 1.2-.2 2.7-.7 4.3-3.4 3.6-6.1l-5.3-20.6 16.8 10c.8.5 1.7.7 2.6.7 1.7 0 3.4-.9 4.3-2.4 1.4-2.4.6-5.4-1.7-6.9l-16.3-9.7 20-5.1c2.8-.5 4.4-3.2 3.7-5.9zm-58.5-9.7L209.2 200l40.1-21.5-1 45zm-21.8-64.8l18.2 11-39.4 21.1 1-44.4 20.2 12.3zM196.3 146l-1 45.7-39.4-23.5 40.4-22.2zm-44.8 31.2l37.4 22.4-38.3 20.5.9-42.9zm3 52.2l40.4-21.7-1 45.5-39.4-23.8zm49.4 23.9l1-44.2 38 22.8-39 21.4z" fill="rgba(255, 255, 255, 0.36627906976744184)" stroke="none"/>
</svg>
</g></svg></g></g>
<!-- /image 92506 -->
</defs><rect x="0" y="0" width="250" height="250" fill="rgba(196, 63, 63, 1)"></rect><use xlink:href="#transformed-97946" transform="translate(-250, -250)"></use><use xlink:href="#transformed-97946" transform="translate(0, -250)"></use><use xlink:href="#transformed-97946" transform="translate(250, -250)"></use><use xlink:href="#transformed-97946" transform="translate(-250, 0)"></use><use xlink:href="#transformed-97946" transform="translate(0, 0)"></use><use xlink:href="#transformed-97946" transform="translate(250, 0)"></use><use xlink:href="#transformed-97946" transform="translate(-250, 250)"></use><use xlink:href="#transformed-97946" transform="translate(0, 250)"></use><use xlink:href="#transformed-97946" transform="translate(250, 250)"></use><use xlink:href="#transformed-92506" transform="translate(-250, -250)"></use><use xlink:href="#transformed-92506" transform="translate(0, -250)"></use><use xlink:href="#transformed-92506" transform="translate(250, -250)"></use><use xlink:href="#transformed-92506" transform="translate(-250, 0)"></use><use xlink:href="#transformed-92506" transform="translate(0, 0)"></use><use xlink:href="#transformed-92506" transform="translate(250, 0)"></use><use xlink:href="#transformed-92506" transform="translate(-250, 250)"></use><use xlink:href="#transformed-92506" transform="translate(0, 250)"></use><use xlink:href="#transformed-92506" transform="translate(250, 250)"></use></svg>